<svg id="Layer_1" data-name="Layer 1" xmlns="http://www.w3.org/2000/svg" viewBox="0 0 999 800"><defs><style>.cls-1{fill:#5bb947;}.cls-2{fill:#fff;}</style></defs><title>Cliff&amp;amp;TonyEnergyLogo</title><rect class="cls-1" width="999" height="800"/><path class="cls-2" d="M615.9,319.5c-3,12.8-7,23-15.4,31s-14.3,12.8-20.8,19.8c-2.8,3-5.2,7.7-5.1,11.6s3,10.2,4.3,15.4c.4,2.1-.6,4.6-.6,6.8,0,6.3.3,12.4-6.5,16.2a83.4,83.4,0,0,0-14.3,10c-.9.8,1,4.5,1.1,6.9.3,4.2,1.2,9.4-4.7,10.3s-3.7,5.3-5.4,8c-5.7,8.9-11.1,18.5-22.5,21.3a126,126,0,0,1-18.4,3c-1.4.2-3.3-1.9-4.5-3.3s-.1-2.5-.4-3.7a27,27,0,0,0-1.6-4.8c-4.7-8.9-10.6-17-11.6-27.7-.5-5.1-4.8-9.9-7.8-14.6s-.7-17.5,2.7-20.9a8.7,8.7,0,0,0,2.1-6.5,137.2,137.2,0,0,0-6.4-19.7c-1.2-2.9-3.9-5.4-6.3-7.6s-4.4-6.5-3-11.5,4.9-9.6-1.1-13.2c-1.8-1.1-4.5-.3-6.7-.9a19.5,19.5,0,0,1-5.4-2.7c-2-1.2-4-4-5.5-3.7-6.2,1.1-12.2,3.1-18.3,4.6-1.4.4-3.1-.2-4.7,0-4.7.4-9.4,1.3-14.1,1.5a14.9,14.9,0,0,1-7.3-1.8,55.2,55.2,0,0,1-11-8.8c-2.7-2.9-4.2-7-6.6-10.4s-3.8-3.4-5.4-5.4-.9-2.7-1.3-4,.6-1,.4-1.3c-3-5.8,3.6-9.3,3.5-14.4s-.9-8.2-.1-12,2.8-6.3,4.9-8.9a163.1,163.1,0,0,1,12.2-14c1.5-1.5,4.5-1.6,6.1-3s3.8-5,5.8-7.4,5.3-5.9,8.1-8.7a46.9,46.9,0,0,1,6.4-5.4c1-.7,2.7-.7,4-.7,3.3.1,6.6,1.1,9.7.5,7.2-1.2,14.3-3.1,21.5-4.6a89.6,89.6,0,0,1,11.4-1.7c1.5-.1,3.1.8,4.7,1.2a8.8,8.8,0,0,0-1.2,2.1c-1,2.6-3.2,5.8-2.5,7.7s4.6,2.7,7.1,4,6.1,3.1,9.2,4.3a87.3,87.3,0,0,0,11.2,3.9c.4.1,1.6-1.9,2.3-3.1s1.4-4.4,2.6-4.6,4.5.4,6.7,1,4.5,2.1,6.9,2.5c4.8.7,9.7,1,14.5,1.4,3.2.2,6.5.9,9.5.1,4.6-1.1,5.2,2.1,5.9,4.8s-.4,4.3-.7,6.4c0,0-.9.1-1.1-.1a14.3,14.3,0,0,1-2-2.3l-2.8-3.6c.8,1.7,1.6,3.3,2.5,4.9,3,5.4,5.8,10.8,9,16,1.5,2.5,3.6,4.5,5.3,6.8a10.4,10.4,0,0,1,.8,2.5c1.3,2.7,2.5,5.3,3.8,7.9.5.9,1.9,1.5,2.1,2.3,1.4,9,10.5,10.8,15.3,16.6.7.9.5,2.5.6,3.8a1.6,1.6,0,0,1-.3.6c2.4,1.5,5,4.3,7.2,4.1,5.8-.6,11.5-2.6,17.2-3.9Z"/><path class="cls-2" d="M610.8,415.4l-2.1.2a1,1,0,0,0-.5.6c-3.9,9.8-7.5,19.8-11.9,29.4-.9,2.1-5,3.7-7.6,3.6s-3.6-4.5-3.4-6.7c.5-4.7,2.6-9.2,3.7-13.9.6-3.1,0-6.6,1.2-9.4s3.7-2.1,5.5-3.4a57.7,57.7,0,0,0,6.9-6.2,58.9,58.9,0,0,0,4.1-5.7c1,1.1,2.5,2,2.9,3.3S610.3,411.9,610.8,415.4Z"/><rect class="cls-2" x="492.4" y="112.5" width="14.1" height="55.17" rx="7"/><rect class="cls-2" x="418.4" y="125.5" width="14.1" height="55.17" rx="7" transform="translate(-26.7 154.7) rotate(-20)"/><rect class="cls-2" x="353.3" y="163.1" width="14.1" height="55.17" rx="7" transform="translate(-38.3 276.2) rotate(-40)"/><rect class="cls-2" x="305" y="220.7" width="14.1" height="55.17" rx="7" transform="translate(-59 394.4) rotate(-60)"/><rect class="cls-2" x="279.3" y="291.3" width="14.1" height="55.17" rx="7" transform="translate(-77.4 545.5) rotate(-80)"/><rect class="cls-2" x="279.3" y="366.5" width="14.1" height="55.17" rx="7" transform="translate(-52 744.4) rotate(-100)"/><rect class="cls-2" x="705.5" y="366.5" width="14.1" height="55.17" rx="7" transform="translate(1224.4 -239.3) rotate(100)"/><rect class="cls-2" x="705.5" y="291.3" width="14.1" height="55.17" rx="7" transform="translate(902.9 -438.2) rotate(80)"/><rect class="cls-2" x="679.8" y="220.7" width="14.1" height="55.17" rx="7" transform="matrix(0.5, 0.87, -0.87, 0.5, 558.43, -470.71)"/><rect class="cls-2" x="631.5" y="163.1" width="14.1" height="55.17" rx="7" transform="translate(272 -365.8) rotate(40)"/><rect class="cls-2" x="566.4" y="125.5" width="14.1" height="55.17" rx="7" transform="translate(86.9 -186.9) rotate(20)"/><path class="cls-2" d="M208.2,580.2a30.6,30.6,0,0,1-11.9-11.5,33.4,33.4,0,0,1,0-32.8,31,31,0,0,1,11.9-11.4,34.8,34.8,0,0,1,17-4.2,34,34,0,0,1,13.4,2.5,25.6,25.6,0,0,1,10.4,7.3l-5.8,5.6a23.1,23.1,0,0,0-17.6-7.4,25,25,0,0,0-12.6,3.1,22.7,22.7,0,0,0-8.8,8.6,23.5,23.5,0,0,0-3.2,12.3,23,23,0,0,0,3.2,12.3,22.3,22.3,0,0,0,8.8,8.7,26.1,26.1,0,0,0,12.6,3.1,23.4,23.4,0,0,0,17.6-7.5l5.8,5.6a26.6,26.6,0,0,1-10.4,7.3,34.9,34.9,0,0,1-13.5,2.6A34.2,34.2,0,0,1,208.2,580.2Z"/><path class="cls-2" d="M261.8,521h9v54.9h33.9v7.7H261.8Z"/><path class="cls-2" d="M315,521h8.9v62.6H315Z"/><path class="cls-2" d="M351.6,528.8v21.8H383v7.7H351.6v25.3h-8.9V521h44.2v7.8Z"/><path class="cls-2" d="M408.4,528.8v21.8h31.4v7.7H408.4v25.3h-8.9V521h44.2v7.8Z"/><path class="cls-2" d="M525.9,584.5l-9-9.5a25.4,25.4,0,0,1-9.2,6.8,29.4,29.4,0,0,1-11.7,2.3,26.9,26.9,0,0,1-10.5-2,16.5,16.5,0,0,1-7.3-5.5,13.8,13.8,0,0,1-2.6-8.2,15.1,15.1,0,0,1,3.7-9.9c2.4-3.1,6.6-6.3,12.5-9.8h-.1c-3.1-3.3-5.2-5.9-6.3-8.1a14.2,14.2,0,0,1-1.7-7,11.9,11.9,0,0,1,4-9.4c2.7-2.3,6.3-3.4,10.8-3.4s7.6,1,10.1,3.1a11.1,11.1,0,0,1,3.7,8.8,12.5,12.5,0,0,1-3.2,8.3q-3.2,3.8-11.1,8.4l18.5,19.6a44.1,44.1,0,0,0,4.5-12.7l3.6,1.1a43.3,43.3,0,0,1-5.3,14.4l9.3,9.9Zm-11.7-12.3-19.8-20.9c-5.5,3.3-9.3,6.1-11.3,8.5a12.4,12.4,0,0,0-3.1,8.3,10.5,10.5,0,0,0,4.5,8.8c3,2.3,6.9,3.4,11.7,3.4Q507.6,580.3,514.2,572.2Zm-24.8-33.1c1,1.9,3,4.3,6,7.5,4.9-2.9,8.3-5.3,10.2-7.3a9.8,9.8,0,0,0,2.8-6.7,7.9,7.9,0,0,0-2.6-6.2,11,11,0,0,0-7.3-2.3,11.3,11.3,0,0,0-7.8,2.6,8.5,8.5,0,0,0-2.8,6.8A11.5,11.5,0,0,0,489.4,539.1Z"/><path class="cls-2" d="M575.4,528.8H554V521h51.8v7.8H584.3v54.8h-8.9Z"/><path class="cls-2" d="M625.8,580.2a30.6,30.6,0,0,1-11.9-11.5,31.5,31.5,0,0,1-4.4-16.4,31.1,31.1,0,0,1,4.4-16.3,29.9,29.9,0,0,1,11.9-11.5,34.9,34.9,0,0,1,17.1-4.2,34.6,34.6,0,0,1,17,4.2,30.4,30.4,0,0,1,11.9,11.4,33.4,33.4,0,0,1,0,32.8,30.6,30.6,0,0,1-11.9,11.5,34.6,34.6,0,0,1-17,4.2A34.9,34.9,0,0,1,625.8,580.2Zm29.5-6.9a23.4,23.4,0,0,0,8.7-8.7,23.9,23.9,0,0,0,3.1-12.3A24.4,24.4,0,0,0,664,540a23.9,23.9,0,0,0-8.7-8.6,24.6,24.6,0,0,0-12.4-3.1,24.9,24.9,0,0,0-12.5,3.1,23.2,23.2,0,0,0-8.7,8.6,23.5,23.5,0,0,0-3.2,12.3,23,23,0,0,0,3.2,12.3,22.7,22.7,0,0,0,8.7,8.7,26,26,0,0,0,12.5,3.1A25.6,25.6,0,0,0,655.3,573.3Z"/><path class="cls-2" d="M743.6,521v62.6h-7.3l-37.6-46.7v46.7h-8.9V521h7.3l37.6,46.7V521Z"/><path class="cls-2" d="M786.4,562v21.6h-8.9V561.8L752.7,521h9.5l20.1,33,20.1-33h8.9Z"/><path class="cls-2" d="M351.8,662.8v3.7h-39V610h37.7v3.7H316.9V636H347v3.6H316.9v23.2Z"/><path class="cls-2" d="M420.8,610v56.5h-3.4l-38.5-49v49h-4.1V610h3.5l38.4,49.1V610Z"/><path class="cls-2" d="M487.5,662.8v3.7h-39V610h37.8v3.7H452.6V636h30.1v3.6H452.6v23.2Z"/><path class="cls-2" d="M549.7,666.5l-13.4-18.9a37.4,37.4,0,0,1-5.5.4H514.6v18.5h-4.1V610h20.3c7.1,0,12.6,1.7,16.7,5.1s6,8,6,14a17.1,17.1,0,0,1-13.2,17.6l14.1,19.8Zm-18.9-22.1c6,0,10.6-1.3,13.8-4s4.7-6.4,4.7-11.3-1.6-8.7-4.7-11.4-7.8-4-13.8-4H514.6v30.7Z"/><path class="cls-2" d="M617,638.5h3.9v21.1a22.6,22.6,0,0,1-9,5.4,31.6,31.6,0,0,1-11.1,1.9,30.8,30.8,0,0,1-15.2-3.7,27.3,27.3,0,0,1-10.5-10.3,30.1,30.1,0,0,1,0-29.3,27.3,27.3,0,0,1,10.5-10.3,31.9,31.9,0,0,1,15.2-3.7,32.7,32.7,0,0,1,11.5,2,24.1,24.1,0,0,1,8.9,5.8l-2.6,2.7a21.4,21.4,0,0,0-8-5.1,29.1,29.1,0,0,0-22.8,1.6,23.8,23.8,0,0,0-9.1,9,25.9,25.9,0,0,0,0,25.3,23.2,23.2,0,0,0,9.2,8.9,25.6,25.6,0,0,0,13,3.3c6.5,0,11.8-1.7,16.1-5.2Z"/><path class="cls-2" d="M664.5,647.1v19.4h-4.1V647.1L637.6,610h4.5l20.4,33.3L682.9,610h4.3Z"/></svg>